<?xml version="1.0" encoding="UTF-8" standalone="no"?>
<!-- Created with Inkscape (http://www.inkscape.org/) -->
<svg
   width="512.0px"
   height="512.0px"
   version="1.1"
   xmlns="http://www.w3.org/2000/svg"
   xmlns:inkscape="http://www.inkscape.org/namespaces/inkscape">
  <defs>
    <linearGradient
       id="screen-gradient"
       inkscape:collect="always"
       x1="116.67767"
       y1="28.16358"
       x2="395.6312"
       y2="391.60782"
       gradientUnits="userSpaceOnUse"
       gradientTransform="matrix(1.0071929,0,0,0.86553168,-3.1723097,74.337263)">
      <stop
         style="stop-color:#00d6ff;stop-opacity:1;"
         offset="0" />
      <stop
         style="stop-color:#002071;stop-opacity:1;"
         offset="1" />
    </linearGradient>
    <filter
       id="colorwheel-blur"
       style="color-interpolation-filters:sRGB;"
       y="-0.56445313"
       x="-0.56445313"
       width="2.1289063"
       height="2.1289063"
       inkscape:label="Blur">
      <feGaussianBlur
         stdDeviation="60 60"
         result="blur" />
      <feColorMatrix
         values="1 0 0 0 0 0 1 0 0 0 0 0 1 0 0 0 0 0 50 0 "
         result="colormatrix" />
      <feComposite
         in="colormatrix"
         in2="SourceGraphic"
         operator="in" />
    </filter>
    <filter
       id="overlay-shadow"
       style="color-interpolation-filters:sRGB;"
       x="-0.10909091"
       y="-0.051428571"
       width="1.2409091"
       height="1.1135714"
       inkscape:label="Drop Shadow">
      <feFlood
         flood-opacity="0.498039"
         flood-color="rgb(0,0,0)"
         result="flood" />
      <feComposite
         in="flood"
         in2="SourceGraphic"
         operator="in"
         result="composite1" />
      <feGaussianBlur
         in="composite1"
         stdDeviation="6"
         result="blur" />
      <feOffset
         dx="3"
         dy="3"
         result="offset" />
      <feComposite
         in="SourceGraphic"
         in2="offset"
         operator="over"
         result="composite2" />
    </filter>
  </defs>
  <g
     id="layer"
     inkscape:groupmode="layer">
    <path
       id="frame"
       style="fill:#1e1e1e;fill-opacity:1"
       x="30"
       y="102"
       width="451"
       height="308"
       d="m 39.02,102 h 435.82 a 6.16,6.16 45 0 1 6.16,6.16 V 400.98 A 9.02,9.02 135 0 1 471.98,410 H 36.16 A 6.16,6.16 45 0 1 30,403.84 V 111.02 A 9.02,9.02 135 0 1 39.02,102 Z" />
    <path
       id="screen"
       style="fill:url(#screen-gradient);fill-opacity:1"
       x="36"
       y="108"
       width="439"
       height="296"
       d="m 475,110.96 v 288.65 c 0,2.40288 -2.04956,4.39 -4.39,4.39 H 38.96 C 37.597446,404 36,402.52748 36,401.04 V 112.39 c 0,-2.6526 2.176512,-4.39 4.39,-4.39 h 431.65 c 1.70888,0 2.96,1.28511 2.96,2.96 z" />
    <g
       id="colorwheel">
      <g
         style="display:inline;filter:url(#colorwheel-blur)">
         <path
            id="colorwheel-magenta"
            style="fill:#ff00ff;fill-opacity:1;stroke:#000000;stroke-opacity:1;filter:url(#colorwheel-blur)"
            d="m 196.53516,221.76172 -51.42188,-29.6875 A 128,128 0 0 0 128,256 a 128,128 0 0 0 17.50977,64.51562 l 51.40234,-29.67578 A 69,69 0 0 1 187,256 a 69,69 0 0 1 9.53516,-34.23828 z" />
         <path
            id="colorwheel-red"
            style="fill:#ff0100;fill-opacity:1;stroke:#000000;stroke-opacity:1;filter:url(#colorwheel-blur)"
            d="M 256.54883,128.01758 A 128,128 0 0 0 256,128 128,128 0 0 0 145.11328,192.07422 l 51.42188,29.6875 A 69,69 0 0 1 256,187 a 69,69 0 0 1 0.54883,0.0234 z" />
         <path
            id="colorwheel-yellow"
            style="fill:#ffff00;fill-opacity:1;stroke:#000000;stroke-opacity:1;filter:url(#colorwheel-blur)"
            d="m 256.54883,128.01758 v 59.00586 a 69,69 0 0 1 59.48242,35.04297 l 51.08398,-29.49219 a 128,128 0 0 0 -110.5664,-64.55664 z" />
      </g>
      <g
         style="display:inline;filter:url(#colorwheel-blur)">
         <path
            id="colorwheel-green"
            style="fill:#00ff00;fill-opacity:1;stroke:#000000;stroke-opacity:1;filter:url(#colorwheel-blur)"
            d="m 315.37891,290.375 51.42578,29.69141 A 128,128 0 0 0 384,256 128,128 0 0 0 367.11523,192.57422 l -51.08398,29.49219 A 69,69 0 0 1 325,256 a 69,69 0 0 1 -9.62109,34.375 z" />
         <path
            id="colorwheel-azure"
            style="fill:#00ffff;fill-opacity:1;stroke:#000000;stroke-opacity:1;filter:url(#colorwheel-blur)"
            d="m 256.54883,324.9375 v 59.01367 A 128,128 0 0 0 366.80469,320.06641 L 315.37891,290.375 a 69,69 0 0 1 -58.83008,34.5625 z" />
         <path
            id="colorwheel-blue"
            style="fill:#0000ff;fill-opacity:1;stroke:#000000;stroke-opacity:1;filter:url(#colorwheel-blur)"
            d="m 196.91211,290.83984 -51.40234,29.67578 A 128,128 0 0 0 256,384 a 128,128 0 0 0 0.54883,-0.0488 V 324.9375 A 69,69 0 0 1 256,325 69,69 0 0 1 196.91211,290.83984 Z" />
      </g>
    </g>
    <rect
       id="overlay"
       style="fill:#1e1e1e;fill-opacity:1;filter:url(#overlay-shadow)"
       x="44"
       y="116"
       width="132"
       height="280" />
    <rect
       id="menubar"
       style="fill:#3d537a;fill-opacity:1"
       x="44"
       y="116"
       width="132"
       height="16" />
  </g>
</svg>
